FILE "Railroad Tycoon II (2000)(Take 2)(M3)[SLES-02426] (Track 1 of 3).bin" BINARY
  TRACK 01 MODE2/2352
    INDEX 01 00:00:00
FILE "Railroad Tycoon II (2000)(Take 2)(M3)[SLES-02426] (Track 2 of 3).bin" BINARY
  TRACK 02 AUDIO
    INDEX 00 00:00:00
    INDEX 01 00:02:00
FILE "Railroad Tycoon II (2000)(Take 2)(M3)[SLES-02426] (Track 3 of 3).bin" BINARY
  TRACK 03 AUDIO
    INDEX 00 00:00:00
    INDEX 01 00:02:00
